<svg width="195" height="37" viewBox="0 0 195 37" fill="none" xmlns="http://www.w3.org/2000/svg">
<path d="M41.6455 22.9868H44.4873C44.5524 23.5597 44.8551 24.0252 45.3955 24.3833C45.9424 24.7349 46.6097 24.9106 47.3975 24.9106C48.1787 24.9106 48.8135 24.7446 49.3018 24.4126C49.7965 24.0741 50.0439 23.6444 50.0439 23.1235C50.0439 22.6678 49.8617 22.3 49.4971 22.02C49.1325 21.7401 48.5238 21.5057 47.6709 21.3169L45.835 20.9165C43.2503 20.3631 41.958 19.0513 41.958 16.981C41.958 15.6919 42.4593 14.6502 43.4619 13.856C44.471 13.0617 45.7666 12.6646 47.3486 12.6646C48.9762 12.6646 50.2751 13.0519 51.2451 13.8267C52.2152 14.5949 52.7132 15.6203 52.7393 16.9028H49.9756C49.93 16.3104 49.6663 15.8449 49.1846 15.5063C48.7093 15.1613 48.1006 14.9888 47.3584 14.9888C46.6292 14.9888 46.04 15.1483 45.5908 15.4673C45.1481 15.7863 44.9268 16.2062 44.9268 16.7271C44.9268 17.1567 45.1058 17.505 45.4639 17.772C45.8285 18.0389 46.4176 18.2668 47.2314 18.4556L48.9404 18.8169C50.3532 19.1164 51.3818 19.5851 52.0264 20.2231C52.6709 20.8547 52.9932 21.7075 52.9932 22.7817C52.9932 24.1489 52.4788 25.2362 51.4502 26.0435C50.4215 26.8442 49.0316 27.2446 47.2803 27.2446C45.5811 27.2446 44.2269 26.867 43.2178 26.1118C42.2152 25.3501 41.6911 24.3084 41.6455 22.9868ZM55.3271 14.1196H58.1787V16.5317H60.1123V18.6802H58.1787V23.6899C58.1787 24.4777 58.5889 24.8716 59.4092 24.8716C59.6761 24.8716 59.9072 24.8553 60.1025 24.8228V26.9224C59.7705 27.0005 59.318 27.0396 58.7451 27.0396C57.5146 27.0396 56.6357 26.8182 56.1084 26.3755C55.5876 25.9328 55.3271 25.2004 55.3271 24.1782V18.6802H53.8525V16.5317H55.3271V14.1196ZM65.6201 25.106C66.2516 25.106 66.7855 24.9237 67.2217 24.5591C67.6644 24.188 67.8857 23.7225 67.8857 23.1626V22.4009L65.6787 22.5376C65.1449 22.5767 64.7314 22.7101 64.4385 22.938C64.152 23.1659 64.0088 23.4653 64.0088 23.8364C64.0088 24.2271 64.1553 24.5363 64.4482 24.7642C64.7412 24.992 65.1318 25.106 65.6201 25.106ZM64.6826 27.1665C63.6735 27.1665 62.8369 26.8703 62.1729 26.2778C61.5088 25.6854 61.1768 24.9237 61.1768 23.9927C61.1768 23.0422 61.5283 22.2967 62.2314 21.7563C62.9346 21.216 63.9404 20.9067 65.249 20.8286L67.8857 20.6724V19.979C67.8857 19.4972 67.7262 19.1196 67.4072 18.8462C67.0947 18.5728 66.6683 18.436 66.1279 18.436C65.6071 18.436 65.1807 18.5532 64.8486 18.7876C64.5231 19.022 64.3245 19.3377 64.2529 19.7349H61.6455C61.6976 18.7062 62.137 17.8794 62.9639 17.2544C63.7907 16.6229 64.8877 16.3071 66.2549 16.3071C67.596 16.3071 68.6702 16.6261 69.4775 17.2642C70.2848 17.9022 70.6885 18.7485 70.6885 19.8032V27.0005H67.9346V25.3989H67.876C67.5895 25.9458 67.1533 26.3787 66.5674 26.6978C65.9814 27.0103 65.3532 27.1665 64.6826 27.1665ZM72.5342 27.0005V16.5317H75.2881V18.4165H75.3467C75.529 17.7524 75.835 17.2446 76.2646 16.8931C76.6943 16.5415 77.2184 16.3657 77.8369 16.3657C78.1364 16.3657 78.4066 16.4015 78.6475 16.4731V18.9829C78.3805 18.8722 78.0355 18.8169 77.6123 18.8169C76.9092 18.8169 76.3623 19.022 75.9717 19.4321C75.5811 19.8423 75.3857 20.4152 75.3857 21.1509V27.0005H72.5342ZM80.5811 14.1196H83.4326V16.5317H85.3662V18.6802H83.4326V23.6899C83.4326 24.4777 83.8428 24.8716 84.6631 24.8716C84.93 24.8716 85.1611 24.8553 85.3564 24.8228V26.9224C85.0244 27.0005 84.5719 27.0396 83.999 27.0396C82.7686 27.0396 81.8896 26.8182 81.3623 26.3755C80.8415 25.9328 80.5811 25.2004 80.5811 24.1782V18.6802H79.1064V16.5317H80.5811V14.1196ZM96.5967 16.5317V27.0005H93.8428V25.1157H93.7842C93.2373 26.5024 92.1924 27.1958 90.6494 27.1958C89.5036 27.1958 88.5889 26.8475 87.9053 26.1509C87.2217 25.4478 86.8799 24.4907 86.8799 23.2798V16.5317H89.7314V22.6841C89.7314 23.3807 89.8975 23.9113 90.2295 24.2759C90.568 24.6405 91.0531 24.8228 91.6846 24.8228C92.3161 24.8228 92.8174 24.6144 93.1885 24.1978C93.5596 23.7811 93.7451 23.2244 93.7451 22.5278V16.5317H96.5967ZM104.565 16.3657C105.894 16.3657 106.938 16.8442 107.7 17.8013C108.468 18.7583 108.853 20.0799 108.853 21.7661C108.853 23.4458 108.475 24.7674 107.72 25.731C106.965 26.688 105.929 27.1665 104.614 27.1665C103.866 27.1665 103.205 26.9972 102.632 26.6587C102.065 26.3136 101.642 25.8416 101.362 25.2427H101.304V30.4185H98.4521V16.5317H101.265V18.3579H101.323C101.61 17.7329 102.033 17.2446 102.593 16.8931C103.159 16.5415 103.817 16.3657 104.565 16.3657ZM103.608 24.8716C104.318 24.8716 104.881 24.5916 105.298 24.0317C105.721 23.4718 105.933 22.7166 105.933 21.7661C105.933 20.8156 105.721 20.0604 105.298 19.5005C104.881 18.9341 104.318 18.6509 103.608 18.6509C102.912 18.6509 102.352 18.9373 101.929 19.5103C101.506 20.0767 101.294 20.8286 101.294 21.7661C101.294 22.7101 101.502 23.4653 101.919 24.0317C102.342 24.5916 102.905 24.8716 103.608 24.8716ZM119.683 24.5591V27.0005H110.571V12.9087H113.521V24.5591H119.683ZM125.229 25.106C125.861 25.106 126.395 24.9237 126.831 24.5591C127.274 24.188 127.495 23.7225 127.495 23.1626V22.4009L125.288 22.5376C124.754 22.5767 124.341 22.7101 124.048 22.938C123.761 23.1659 123.618 23.4653 123.618 23.8364C123.618 24.2271 123.765 24.5363 124.058 24.7642C124.351 24.992 124.741 25.106 125.229 25.106ZM124.292 27.1665C123.283 27.1665 122.446 26.8703 121.782 26.2778C121.118 25.6854 120.786 24.9237 120.786 23.9927C120.786 23.0422 121.138 22.2967 121.841 21.7563C122.544 21.216 123.55 20.9067 124.858 20.8286L127.495 20.6724V19.979C127.495 19.4972 127.336 19.1196 127.017 18.8462C126.704 18.5728 126.278 18.436 125.737 18.436C125.216 18.436 124.79 18.5532 124.458 18.7876C124.132 19.022 123.934 19.3377 123.862 19.7349H121.255C121.307 18.7062 121.746 17.8794 122.573 17.2544C123.4 16.6229 124.497 16.3071 125.864 16.3071C127.205 16.3071 128.28 16.6261 129.087 17.2642C129.894 17.9022 130.298 18.7485 130.298 19.8032V27.0005H127.544V25.3989H127.485C127.199 25.9458 126.763 26.3787 126.177 26.6978C125.591 27.0103 124.963 27.1665 124.292 27.1665ZM132.144 27.0005V16.5317H134.897V18.397H134.956C135.243 17.7329 135.659 17.2251 136.206 16.8735C136.759 16.5155 137.433 16.3364 138.228 16.3364C139.386 16.3364 140.282 16.6815 140.913 17.3716C141.545 18.0617 141.86 19.022 141.86 20.2524V27.0005H139.009V20.8481C139.009 20.158 138.846 19.6274 138.521 19.2563C138.195 18.8853 137.716 18.6997 137.085 18.6997C136.453 18.6997 135.946 18.9113 135.562 19.3345C135.184 19.7576 134.995 20.311 134.995 20.9946V27.0005H132.144ZM147.554 27.1665C146.245 27.1665 145.207 26.6815 144.438 25.7114C143.67 24.7414 143.286 23.4198 143.286 21.7466C143.286 20.0864 143.67 18.7746 144.438 17.811C145.213 16.8475 146.258 16.3657 147.573 16.3657C148.315 16.3657 148.966 16.5448 149.526 16.9028C150.093 17.2609 150.506 17.7362 150.767 18.3286H150.825V12.9087H153.677V27.0005H150.864V25.2036H150.815C150.555 25.7961 150.135 26.2713 149.556 26.6294C148.976 26.9875 148.309 27.1665 147.554 27.1665ZM148.521 18.6509C147.804 18.6509 147.238 18.9308 146.821 19.4907C146.411 20.0506 146.206 20.8091 146.206 21.7661C146.206 22.7297 146.411 23.4881 146.821 24.0415C147.238 24.5949 147.804 24.8716 148.521 24.8716C149.23 24.8716 149.793 24.5949 150.21 24.0415C150.633 23.4816 150.845 22.7231 150.845 21.7661C150.845 20.8156 150.633 20.0604 150.21 19.5005C149.793 18.9341 149.23 18.6509 148.521 18.6509ZM155.63 27.0005V16.5317H158.481V27.0005H155.63ZM158.14 14.9497C157.847 15.2362 157.485 15.3794 157.056 15.3794C156.626 15.3794 156.265 15.2362 155.972 14.9497C155.679 14.6632 155.532 14.3149 155.532 13.9048C155.532 13.4881 155.679 13.1398 155.972 12.8599C156.265 12.5734 156.626 12.4302 157.056 12.4302C157.485 12.4302 157.847 12.5734 158.14 12.8599C158.433 13.1398 158.579 13.4881 158.579 13.9048C158.579 14.3149 158.433 14.6632 158.14 14.9497ZM160.386 27.0005V16.5317H163.14V18.397H163.198C163.485 17.7329 163.901 17.2251 164.448 16.8735C165.002 16.5155 165.675 16.3364 166.47 16.3364C167.629 16.3364 168.524 16.6815 169.155 17.3716C169.787 18.0617 170.103 19.022 170.103 20.2524V27.0005H167.251V20.8481C167.251 20.158 167.088 19.6274 166.763 19.2563C166.437 18.8853 165.959 18.6997 165.327 18.6997C164.696 18.6997 164.188 18.9113 163.804 19.3345C163.426 19.7576 163.237 20.311 163.237 20.9946V27.0005H160.386ZM176.743 24.7739C177.459 24.7739 178.026 24.507 178.442 23.9731C178.866 23.4328 179.077 22.6906 179.077 21.7466C179.077 20.8026 178.866 20.0506 178.442 19.4907C178.019 18.9308 177.453 18.6509 176.743 18.6509C176.04 18.6509 175.48 18.9308 175.063 19.4907C174.653 20.0441 174.448 20.7961 174.448 21.7466C174.448 22.6971 174.653 23.4393 175.063 23.9731C175.474 24.507 176.034 24.7739 176.743 24.7739ZM176.694 30.9458C175.334 30.9458 174.214 30.6463 173.335 30.0474C172.463 29.4549 171.968 28.6867 171.851 27.7427H174.644C174.754 28.1073 175.002 28.4002 175.386 28.6216C175.776 28.8494 176.239 28.9634 176.772 28.9634C177.495 28.9634 178.058 28.7778 178.462 28.4067C178.866 28.0422 179.067 27.5506 179.067 26.9321V25.0962H179.009C178.761 25.6626 178.348 26.1183 177.769 26.4634C177.189 26.8019 176.525 26.9712 175.776 26.9712C174.487 26.9712 173.455 26.5024 172.681 25.5649C171.912 24.6274 171.528 23.3481 171.528 21.7271C171.528 20.0669 171.912 18.7583 172.681 17.8013C173.449 16.8442 174.497 16.3657 175.825 16.3657C176.567 16.3657 177.222 16.5448 177.788 16.9028C178.354 17.2609 178.778 17.7459 179.058 18.3579H179.106V16.5317H181.919V26.854C181.919 28.0975 181.44 29.0903 180.483 29.8325C179.533 30.5747 178.27 30.9458 176.694 30.9458Z" fill="#0F2137"/>
<g clip-path="url(#clip0)">
<path d="M20.2117 0.539815C16.7929 -0.36784 13.167 -0.131665 9.89783 1.2116C6.62871 2.55487 3.89969 4.92993 2.13527 7.96732C0.370848 11.0047 -0.330049 14.5342 0.141602 18.0067C0.613252 21.4792 2.23101 24.7001 4.74323 27.1683L22.6296 9.46609C23.2983 8.80363 23.7792 7.97861 24.0239 7.07392C24.2685 6.16923 24.2683 5.21674 24.0233 4.31215C23.7782 3.40757 23.297 2.58275 22.6279 1.92058C21.9589 1.2584 21.1255 0.782199 20.2117 0.539815Z" fill="url(#paint0_linear)"/>
<path d="M6.78973 36.4606C10.2106 37.3711 13.8396 37.1364 17.1117 35.793C20.3837 34.4495 23.1152 32.0727 24.8806 29.0328C26.6461 25.9928 27.3465 22.4602 26.8727 18.9852C26.399 15.5102 24.7776 12.2878 22.2613 9.81982L4.37492 27.5343C3.70612 28.1965 3.22514 29.0213 2.98031 29.9258C2.73547 30.8303 2.7354 31.7827 2.98011 32.6872C3.22481 33.5918 3.70567 34.4166 4.37437 35.079C5.04308 35.7413 5.87609 36.2178 6.78973 36.4606Z" fill="url(#paint1_linear)"/>
<path style="mix-blend-mode:multiply" d="M22.2613 9.81982L4.37492 27.5343C3.70612 28.1965 3.22514 29.0213 2.98031 29.9258C2.73547 30.8303 2.7354 31.7827 2.98011 32.6872C3.22481 33.5917 3.70567 34.4166 4.37437 35.079C5.04308 35.7413 5.87609 36.2178 6.78973 36.4606C8.7024 36.9655 10.6927 37.1173 12.6609 36.9086C4.8182 29.4398 22.2613 9.81982 22.2613 9.81982Z" fill="url(#paint2_linear)"/>
<g style="mix-blend-mode:multiply">
<path style="mix-blend-mode:multiply" d="M6.46114 36.3622C3.92234 28.5805 19.1707 12.9097 21.8614 10.2278L4.37492 27.5341C3.72661 28.176 3.25442 28.971 3.00299 29.8438C2.75157 30.7167 2.72923 31.6386 2.93809 32.5224C3.14694 33.4062 3.58009 34.2227 4.19657 34.8946C4.81305 35.5665 5.59247 36.0716 6.46114 36.3622Z" fill="url(#paint3_linear)"/>
<path style="mix-blend-mode:multiply" d="M22.2023 9.89033C22.2209 9.8699 22.2406 9.85044 22.2612 9.83203L22.2023 9.89033Z" fill="url(#paint4_linear)"/>
</g>
<path style="mix-blend-mode:screen" d="M23.9414 7.36499L4.72211 27.1568L22.6301 9.46691C23.2283 8.87824 23.6776 8.15805 23.9414 7.36499Z" fill="url(#paint5_radial)"/>
</g>
<defs>
<linearGradient id="paint0_linear" x1="16.4112" y1="-16.6929" x2="10.5886" y2="20.6659" gradientUnits="userSpaceOnUse">
<stop stop-color="#0096D9"/>
<stop offset="1" stop-color="#00C198"/>
</linearGradient>
<linearGradient id="paint1_linear" x1="9.13634" y1="13.6186" x2="18.5055" y2="32.4253" gradientUnits="userSpaceOnUse">
<stop stop-color="#002DD9"/>
<stop offset="1" stop-color="#00B2AB"/>
</linearGradient>
<linearGradient id="paint2_linear" x1="23.8081" y1="-3.42383" x2="6.0835" y2="38.1718" gradientUnits="userSpaceOnUse">
<stop stop-color="#3482C0"/>
<stop offset="0.45" stop-color="#96BEDE"/>
<stop offset="0.83" stop-color="#E1EDF6"/>
<stop offset="1" stop-color="white"/>
</linearGradient>
<linearGradient id="paint3_linear" x1="1361.37" y1="132.276" x2="-132.261" y2="2238.51" gradientUnits="userSpaceOnUse">
<stop stop-color="#3482C0"/>
<stop offset="0.45" stop-color="#96BEDE"/>
<stop offset="0.83" stop-color="#E1EDF6"/>
<stop offset="1" stop-color="white"/>
</linearGradient>
<linearGradient id="paint4_linear" x1="25.6742" y1="3.26857" x2="10.5961" y2="32.713" gradientUnits="userSpaceOnUse">
<stop stop-color="#569FA1"/>
<stop offset="0.36" stop-color="#97C4C5"/>
<stop offset="0.8" stop-color="#E2EEEF"/>
<stop offset="1" stop-color="white"/>
</linearGradient>
<radialGradient id="paint5_radial" cx="0" cy="0" r="1" gradientUnits="userSpaceOnUse" gradientTransform="translate(21.5948 32.3825) scale(27.8184 27.5367)">
<stop stop-color="#FFFF00"/>
<stop offset="1"/>
</radialGradient>
<clipPath id="clip0">
<rect width="27" height="37" fill="white" transform="translate(0.000976562 0.000488281)"/>
</clipPath>
</defs>
</svg>
